# File created by Blade
# Date/Time:  Mon Sep 22 17:38:34 2014
# Frame Rate: 120.000 fps
#------------------------------------------------------
:FULLY-SPECIFIED
:DEGREES
3509
root 3.645278 38.736273 5.377640 22.721979 35.709846 44.717322
RightUpLeg 5.353217 -26.244429 -34.899214
RightLeg 16.328368 -0.000000 -0.000000
RightFoot -29.368748 -25.511302 25.081918
RightToeBase 11.343322 -0.000000 -0.000000
LeftUpLeg 14.541985 26.275444 8.517886
LeftLeg 79.487211 -0.000000 -0.000000
LeftFoot 20.305190 26.898740 -35.303582
LeftToeBase -4.437376 -0.000000 0.000000
Spine 11.039118 -4.053285 -14.246662
RightShoulder -2.828584 -23.313904 -16.896134
RightArm 17.659574 20.139586 52.640505
RightForeArm 9.180198 0.000000 113.736659
RightHand 5.357725 -0.000000 -43.673269
RightHandThumb1 -24.326973 -0.000000 -32.862282
LeftShoulder -27.388940 37.896195 -17.278503
LeftArm 25.770834 -12.976949 -71.367519
LeftForeArm 24.424475 -0.000000 57.430231
LeftHand -30.894270 -0.000000 13.425202
LeftHandThumb1 -26.253704 0.000000 33.147579
Head 18.181701 -18.780100 -21.153021
3510
root 3.660417 38.736186 5.381436 22.704345 35.630010 44.751749
RightUpLeg 5.339456 -25.986843 -34.923484
RightLeg 16.328412 -0.000000 -0.000000
RightFoot -29.408572 -25.718818 25.098347
RightToeBase 11.318490 -0.000000 -0.000000
LeftUpLeg 14.534048 26.263304 8.441039
LeftLeg 79.480390 -0.000000 -0.000000
LeftFoot 20.278535 26.866009 -35.353263
LeftToeBase -4.611352 -0.000000 0.000000
Spine 11.057763 -4.045706 -14.276812
RightShoulder -2.813164 -23.296459 -16.924362
RightArm 17.591487 20.094186 52.512351
RightForeArm 9.184013 0.000000 113.743713
RightHand 5.434591 -0.000000 -43.738113
RightHandThumb1 -24.326973 -0.000000 -32.862282
LeftShoulder -27.448853 37.914847 -17.374292
LeftArm 25.756293 -13.122798 -71.440108
LeftForeArm 24.211494 0.000000 57.049269
LeftHand -30.896391 0.000000 13.408261
LeftHandThumb1 -26.253704 0.000000 33.147579
Head 18.128581 -18.811832 -21.188788
3511
root 3.676413 38.736291 5.383150 22.698565 35.591001 44.798210
RightUpLeg 5.354868 -25.831671 -34.972116
RightLeg 16.328597 -0.000000 -0.000000
RightFoot -29.471900 -25.799873 25.151367
RightToeBase 11.618386 -0.000000 -0.000000
LeftUpLeg 14.496863 26.206819 8.348921
LeftLeg 79.484792 -0.000000 -0.000000
LeftFoot 20.216087 26.863517 -35.476652
LeftToeBase -4.463254 -0.000000 0.000000
Spine 11.088462 -4.061409 -14.282327
RightShoulder -2.829157 -23.305537 -16.951754
RightArm 17.586302 20.104246 52.454367
RightForeArm 9.097929 0.000000 113.735089
RightHand 5.511670 -0.000000 -43.703070
RightHandThumb1 -24.326973 -0.000000 -32.862282
LeftShoulder -27.475673 37.903778 -17.449269
LeftArm 25.739973 -13.271322 -71.522514
LeftForeArm 24.014064 0.000000 56.665994
LeftHand -30.929420 -0.000000 13.465741
LeftHandThumb1 -26.253704 0.000000 33.147579
Head 18.068633 -18.852644 -21.240665
3512
root 3.693854 38.736060 5.385971 22.687871 35.556116 44.853757
RightUpLeg 5.394005 -25.775678 -35.062936
RightLeg 16.354967 -0.000000 -0.000000
RightFoot -29.487002 -25.827470 25.152493
RightToeBase 11.529639 -0.000000 -0.000000
LeftUpLeg 14.473425 26.144883 8.252039
LeftLeg 79.478135 -0.000000 -0.000000
LeftFoot 20.212493 26.827768 -35.481106
LeftToeBase -4.605555 -0.000000 0.000000
Spine 11.129207 -4.068506 -14.298080
RightShoulder -2.847001 -23.291865 -16.971637
RightArm 17.528447 20.103537 52.387563
RightForeArm 9.021138 -0.000000 113.737695
RightHand 5.566796 0.000000 -43.666286
RightHandThumb1 -24.326973 -0.000000 -32.862282
LeftShoulder -27.498551 37.904331 -17.515727
LeftArm 25.737041 -13.393678 -71.602031
LeftForeArm 23.956502 -0.000000 56.340143
LeftHand -31.077867 -0.000000 13.407300
LeftHandThumb1 -26.253704 0.000000 33.147579
Head 18.024671 -18.921958 -21.289571
3513
root 3.716692 38.738869 5.387293 22.682175 35.570955 44.957071
RightUpLeg 5.519964 -25.888414 -35.245581
RightLeg 16.365632 -0.000000 -0.000000
RightFoot -29.443720 -25.760447 25.111400
RightToeBase 11.312332 -0.000000 -0.000000
LeftUpLeg 14.462475 26.020712 8.112390
LeftLeg 79.452062 -0.000000 -0.000000
LeftFoot 20.183115 26.812278 -35.468144
LeftToeBase -4.580783 -0.000000 0.000000
Spine 11.193796 -4.148141 -14.314794
RightShoulder -2.834348 -23.370991 -17.011947
RightArm 17.556926 20.185786 52.363546
RightForeArm 8.970067 -0.000000 113.735236
RightHand 5.618351 -0.000000 -43.668179
RightHandThumb1 -24.326973 -0.000000 -32.862282
LeftShoulder -27.538686 37.937667 -17.619939
LeftArm 25.807556 -13.532274 -71.702284
LeftForeArm 23.940836 -0.000000 56.011909
LeftHand -31.730264 -0.000000 13.294777
LeftHandThumb1 -26.253704 0.000000 33.147579
Head 18.025132 -18.961552 -21.389168
3514
root 3.733779 38.740416 5.389530 22.670055 35.551644 45.023949
RightUpLeg 5.592652 -26.002425 -35.388939
RightLeg 16.383114 -0.000000 -0.000000
RightFoot -29.383312 -25.626615 25.019913
RightToeBase 11.612853 -0.000000 -0.000000
LeftUpLeg 14.446125 25.949554 7.996713
LeftLeg 79.415874 -0.000000 -0.000000
LeftFoot 20.013594 26.836652 -35.594854
LeftToeBase -4.492114 -0.000000 0.000000
Spine 11.260481 -4.174597 -14.332051
RightShoulder -2.858843 -23.391072 -16.995783
RightArm 17.553099 20.251705 52.305438
RightForeArm 8.939410 0.000000 113.744668
RightHand 5.618746 -0.000000 -43.713046
RightHandThumb1 -24.326973 -0.000000 -32.862282
LeftShoulder -27.582079 37.950603 -17.694918
LeftArm 25.872826 -13.622101 -71.781301
LeftForeArm 24.057734 -0.000000 55.713518
LeftHand -31.591970 0.000000 13.186396
LeftHandThumb1 -26.253704 0.000000 33.147579
Head 17.957583 -18.996945 -21.429901
3515
root 3.751091 38.742392 5.390903 22.647811 35.521661 45.080440
RightUpLeg 5.663617 -26.093026 -35.525930
RightLeg 16.394754 -0.000000 -0.000000
RightFoot -29.331134 -25.543558 24.949707
RightToeBase 11.318955 -0.000000 -0.000000
LeftUpLeg 14.443621 25.907802 7.886118
LeftLeg 79.365618 -0.000000 -0.000000
LeftFoot 19.988152 26.828562 -35.524996
LeftToeBase -4.572748 -0.000000 0.000000
Spine 11.316402 -4.197887 -14.340268
RightShoulder -2.859288 -23.435657 -16.997224
RightArm 17.575987 20.375616 52.308558
RightForeArm 8.875745 -0.000000 113.758189
RightHand 5.505284 -0.000000 -43.625653
RightHandThumb1 -24.326973 -0.000000 -32.862282
LeftShoulder -27.617492 37.990284 -17.772225
LeftArm 25.952488 -13.689884 -71.870180
LeftForeArm 23.950051 0.000000 55.434450
LeftHand -31.315212 -0.000000 13.447908
LeftHandThumb1 -26.253704 0.000000 33.147579
Head 17.935081 -18.993660 -21.479892
3516
root 3.769663 38.745729 5.390354 22.623167 35.480918 45.145553
RightUpLeg 5.743768 -26.146030 -35.674990
RightLeg 16.391865 -0.000000 -0.000000
RightFoot -29.282871 -25.468036 24.906069
RightToeBase 11.291270 -0.000000 -0.000000
LeftUpLeg 14.454159 25.883902 7.760442
LeftLeg 79.294361 -0.000000 -0.000000
LeftFoot 19.863803 26.870369 -35.605347
LeftToeBase -4.575090 -0.000000 0.000000
Spine 11.381572 -4.219374 -14.357515
RightShoulder -2.842024 -23.430337 -17.001940
RightArm 17.580681 20.444651 52.292726
RightForeArm 8.960135 -0.000000 113.750244
RightHand 5.611767 -0.000000 -43.813038
RightHandThumb1 -24.326973 -0.000000 -32.862282
LeftShoulder -27.630741 38.012587 -17.847332
LeftArm 25.996670 -13.749208 -71.932708
LeftForeArm 23.883049 0.000000 55.249643
LeftHand -31.478992 -0.000000 13.500800
LeftHandThumb1 -26.253704 0.000000 33.147579
Head 17.920367 -19.002844 -21.542104
